<mxfile host="app.diagrams.net" modified="2023-10-03T16:39:51.163Z" agent="Mozilla/5.0 (Windows NT 10.0; Win64; x64) AppleWebKit/537.36 (KHTML, like Gecko) Chrome/117.0.0.0 Safari/537.36" etag="lugMwSmT764x9_532YFt" version="22.0.2" type="device">
  <diagram name="Page-1" id="Opnb4JDE0Ygv5Q6zVE0G">
    <mxGraphModel dx="1509" dy="842" grid="1" gridSize="10" guides="1" tooltips="1" connect="1" arrows="1" fold="1" page="1" pageScale="1" pageWidth="827" pageHeight="1169" math="0" shadow="0">
      <root>
        <mxCell id="0" />
        <mxCell id="1" parent="0" />
        <mxCell id="zXnYOzu0UvHGzboVhQbv-30" value="" style="shape=parallelogram;perimeter=parallelogramPerimeter;whiteSpace=wrap;html=1;fixedSize=1;fillColor=#dae8fc;strokeColor=#6c8ebf;" vertex="1" parent="1">
          <mxGeometry x="15" y="40" width="385" height="132.5" as="geometry" />
        </mxCell>
        <mxCell id="zXnYOzu0UvHGzboVhQbv-2" value="" style="rounded=0;whiteSpace=wrap;html=1;direction=south;" vertex="1" parent="1">
          <mxGeometry x="120" y="80" width="60" height="80" as="geometry" />
        </mxCell>
        <mxCell id="zXnYOzu0UvHGzboVhQbv-3" value="" style="rounded=0;whiteSpace=wrap;html=1;direction=south;" vertex="1" parent="1">
          <mxGeometry x="40" y="90" width="60" height="70" as="geometry" />
        </mxCell>
        <mxCell id="zXnYOzu0UvHGzboVhQbv-4" value="" style="rounded=0;whiteSpace=wrap;html=1;direction=south;" vertex="1" parent="1">
          <mxGeometry x="280" y="70" width="60" height="90" as="geometry" />
        </mxCell>
        <mxCell id="zXnYOzu0UvHGzboVhQbv-6" value="Raamatud, mida on vaja sorteerida. Kõigil raamatutel on olemas kõrgus, mille hiljem kindlaks teen" style="text;strokeColor=none;align=center;fillColor=none;html=1;verticalAlign=middle;whiteSpace=wrap;rounded=0;" vertex="1" parent="1">
          <mxGeometry x="414" y="40" width="340" height="30" as="geometry" />
        </mxCell>
        <mxCell id="zXnYOzu0UvHGzboVhQbv-11" value="Võtan ühe raamatu ja jätan selle kõrguse meelde" style="text;strokeColor=#9673a6;align=center;fillColor=#e1d5e7;html=1;verticalAlign=middle;whiteSpace=wrap;rounded=0;" vertex="1" parent="1">
          <mxGeometry x="150" y="200" width="160" height="30" as="geometry" />
        </mxCell>
        <mxCell id="zXnYOzu0UvHGzboVhQbv-12" value="30" style="rounded=0;whiteSpace=wrap;html=1;direction=south;fillColor=#d5e8d4;strokeColor=#82b366;" vertex="1" parent="1">
          <mxGeometry x="60" y="180" width="60" height="90" as="geometry" />
        </mxCell>
        <mxCell id="zXnYOzu0UvHGzboVhQbv-13" value="Vaatan, kas riiulis on juba raamatuid või mitte. Kui ei ole panen raamatu riiulisse." style="text;strokeColor=#9673a6;align=center;fillColor=#e1d5e7;html=1;verticalAlign=middle;whiteSpace=wrap;rounded=0;" vertex="1" parent="1">
          <mxGeometry x="150" y="260" width="160" height="40" as="geometry" />
        </mxCell>
        <mxCell id="zXnYOzu0UvHGzboVhQbv-15" value="30" style="rounded=0;whiteSpace=wrap;html=1;direction=south;fillColor=#d5e8d4;strokeColor=#82b366;" vertex="1" parent="1">
          <mxGeometry x="640" y="440" width="60" height="90" as="geometry" />
        </mxCell>
        <mxCell id="zXnYOzu0UvHGzboVhQbv-17" value="15" style="rounded=0;whiteSpace=wrap;html=1;direction=south;fillColor=#d5e8d4;strokeColor=#82b366;" vertex="1" parent="1">
          <mxGeometry x="570" y="600" width="60" height="50" as="geometry" />
        </mxCell>
        <mxCell id="zXnYOzu0UvHGzboVhQbv-18" value="" style="rounded=0;whiteSpace=wrap;html=1;direction=south;" vertex="1" parent="1">
          <mxGeometry x="200" y="110" width="60" height="50" as="geometry" />
        </mxCell>
        <mxCell id="zXnYOzu0UvHGzboVhQbv-19" value="30" style="rounded=0;whiteSpace=wrap;html=1;direction=south;" vertex="1" parent="1">
          <mxGeometry x="640" y="560" width="60" height="90" as="geometry" />
        </mxCell>
        <mxCell id="zXnYOzu0UvHGzboVhQbv-20" value="25" style="rounded=0;whiteSpace=wrap;html=1;direction=south;fillColor=#d5e8d4;strokeColor=#82b366;" vertex="1" parent="1">
          <mxGeometry x="570" y="690" width="60" height="80" as="geometry" />
        </mxCell>
        <mxCell id="zXnYOzu0UvHGzboVhQbv-21" value="30" style="rounded=0;whiteSpace=wrap;html=1;direction=south;" vertex="1" parent="1">
          <mxGeometry x="640" y="680" width="60" height="90" as="geometry" />
        </mxCell>
        <mxCell id="zXnYOzu0UvHGzboVhQbv-22" value="15" style="rounded=0;whiteSpace=wrap;html=1;direction=south;" vertex="1" parent="1">
          <mxGeometry x="500" y="720" width="60" height="50" as="geometry" />
        </mxCell>
        <mxCell id="zXnYOzu0UvHGzboVhQbv-23" value="Siin võrdlen uuesti raamatuid omavahel ja vahetan kohti" style="text;strokeColor=#9673a6;align=center;fillColor=#e1d5e7;html=1;verticalAlign=middle;whiteSpace=wrap;rounded=0;" vertex="1" parent="1">
          <mxGeometry x="170" y="740" width="150" height="45" as="geometry" />
        </mxCell>
        <mxCell id="zXnYOzu0UvHGzboVhQbv-24" value="30" style="rounded=0;whiteSpace=wrap;html=1;direction=south;" vertex="1" parent="1">
          <mxGeometry x="640" y="800" width="60" height="90" as="geometry" />
        </mxCell>
        <mxCell id="zXnYOzu0UvHGzboVhQbv-25" value="25" style="rounded=0;whiteSpace=wrap;html=1;direction=south;" vertex="1" parent="1">
          <mxGeometry x="570" y="810" width="60" height="80" as="geometry" />
        </mxCell>
        <mxCell id="zXnYOzu0UvHGzboVhQbv-26" value="20" style="rounded=0;whiteSpace=wrap;html=1;direction=south;fillColor=#d5e8d4;strokeColor=#82b366;" vertex="1" parent="1">
          <mxGeometry x="500" y="820" width="60" height="70" as="geometry" />
        </mxCell>
        <mxCell id="zXnYOzu0UvHGzboVhQbv-27" value="15" style="rounded=0;whiteSpace=wrap;html=1;direction=south;" vertex="1" parent="1">
          <mxGeometry x="430" y="840" width="60" height="50" as="geometry" />
        </mxCell>
        <mxCell id="zXnYOzu0UvHGzboVhQbv-31" value="Andmed/raamatud" style="text;strokeColor=none;align=center;fillColor=none;html=1;verticalAlign=middle;whiteSpace=wrap;rounded=0;" vertex="1" parent="1">
          <mxGeometry x="150" y="40" width="110" height="30" as="geometry" />
        </mxCell>
        <mxCell id="zXnYOzu0UvHGzboVhQbv-32" value="" style="endArrow=classic;html=1;rounded=0;exitX=1;exitY=0.5;exitDx=0;exitDy=0;entryX=0;entryY=0.5;entryDx=0;entryDy=0;" edge="1" parent="1" source="zXnYOzu0UvHGzboVhQbv-34" target="zXnYOzu0UvHGzboVhQbv-39">
          <mxGeometry width="50" height="50" relative="1" as="geometry">
            <mxPoint x="390" y="530" as="sourcePoint" />
            <mxPoint x="670" y="290" as="targetPoint" />
            <Array as="points" />
          </mxGeometry>
        </mxCell>
        <mxCell id="zXnYOzu0UvHGzboVhQbv-33" value="" style="endArrow=classic;html=1;rounded=0;exitX=0.5;exitY=1;exitDx=0;exitDy=0;entryX=0.5;entryY=0;entryDx=0;entryDy=0;" edge="1" parent="1" source="zXnYOzu0UvHGzboVhQbv-13" target="zXnYOzu0UvHGzboVhQbv-34">
          <mxGeometry width="50" height="50" relative="1" as="geometry">
            <mxPoint x="390" y="630" as="sourcePoint" />
            <mxPoint x="320" y="520" as="targetPoint" />
          </mxGeometry>
        </mxCell>
        <mxCell id="zXnYOzu0UvHGzboVhQbv-34" value="Raamat lisatud?" style="text;strokeColor=#9673a6;align=center;fillColor=#e1d5e7;html=1;verticalAlign=middle;whiteSpace=wrap;rounded=0;" vertex="1" parent="1">
          <mxGeometry x="150" y="340" width="160" height="30" as="geometry" />
        </mxCell>
        <mxCell id="zXnYOzu0UvHGzboVhQbv-35" value="Jah" style="text;strokeColor=none;align=center;fillColor=none;html=1;verticalAlign=middle;whiteSpace=wrap;rounded=0;" vertex="1" parent="1">
          <mxGeometry x="235" y="380" width="60" height="30" as="geometry" />
        </mxCell>
        <mxCell id="zXnYOzu0UvHGzboVhQbv-36" value="Ei" style="text;strokeColor=none;align=center;fillColor=none;html=1;verticalAlign=middle;whiteSpace=wrap;rounded=0;" vertex="1" parent="1">
          <mxGeometry x="410" y="320" width="60" height="30" as="geometry" />
        </mxCell>
        <mxCell id="zXnYOzu0UvHGzboVhQbv-37" value="Kas raamat on kõrgem?" style="text;strokeColor=#9673a6;align=center;fillColor=#e1d5e7;html=1;verticalAlign=middle;whiteSpace=wrap;rounded=0;" vertex="1" parent="1">
          <mxGeometry x="150" y="500" width="160" height="30" as="geometry" />
        </mxCell>
        <mxCell id="zXnYOzu0UvHGzboVhQbv-39" value="Lisan raamatu riiulisse" style="rhombus;whiteSpace=wrap;html=1;fillColor=#fff2cc;strokeColor=#d6b656;" vertex="1" parent="1">
          <mxGeometry x="585" y="325" width="170" height="60" as="geometry" />
        </mxCell>
        <mxCell id="zXnYOzu0UvHGzboVhQbv-41" style="edgeStyle=orthogonalEdgeStyle;rounded=0;orthogonalLoop=1;jettySize=auto;html=1;exitX=0.5;exitY=1;exitDx=0;exitDy=0;" edge="1" parent="1">
          <mxGeometry relative="1" as="geometry">
            <mxPoint x="390" y="420" as="sourcePoint" />
            <mxPoint x="390" y="420" as="targetPoint" />
          </mxGeometry>
        </mxCell>
        <mxCell id="zXnYOzu0UvHGzboVhQbv-43" value="Võrdlen riiulis olevat raamatut" style="text;strokeColor=#9673a6;align=center;fillColor=#e1d5e7;html=1;verticalAlign=middle;whiteSpace=wrap;rounded=0;" vertex="1" parent="1">
          <mxGeometry x="150" y="420" width="160" height="30" as="geometry" />
        </mxCell>
        <mxCell id="zXnYOzu0UvHGzboVhQbv-45" value="Jah" style="text;strokeColor=none;align=center;fillColor=none;html=1;verticalAlign=middle;whiteSpace=wrap;rounded=0;" vertex="1" parent="1">
          <mxGeometry x="310" y="555" width="60" height="30" as="geometry" />
        </mxCell>
        <mxCell id="zXnYOzu0UvHGzboVhQbv-46" value="Ei" style="text;strokeColor=none;align=center;fillColor=none;html=1;verticalAlign=middle;whiteSpace=wrap;rounded=0;" vertex="1" parent="1">
          <mxGeometry x="120" y="560" width="60" height="30" as="geometry" />
        </mxCell>
        <mxCell id="zXnYOzu0UvHGzboVhQbv-47" value="" style="endArrow=classic;html=1;rounded=0;exitX=0.5;exitY=1;exitDx=0;exitDy=0;entryX=0.5;entryY=0;entryDx=0;entryDy=0;" edge="1" parent="1" source="zXnYOzu0UvHGzboVhQbv-34" target="zXnYOzu0UvHGzboVhQbv-43">
          <mxGeometry width="50" height="50" relative="1" as="geometry">
            <mxPoint x="230" y="390" as="sourcePoint" />
            <mxPoint x="440" y="530" as="targetPoint" />
          </mxGeometry>
        </mxCell>
        <mxCell id="zXnYOzu0UvHGzboVhQbv-48" value="" style="endArrow=classic;html=1;rounded=0;exitX=0.5;exitY=1;exitDx=0;exitDy=0;entryX=0.5;entryY=0;entryDx=0;entryDy=0;" edge="1" parent="1" source="zXnYOzu0UvHGzboVhQbv-43" target="zXnYOzu0UvHGzboVhQbv-37">
          <mxGeometry width="50" height="50" relative="1" as="geometry">
            <mxPoint x="390" y="580" as="sourcePoint" />
            <mxPoint x="440" y="530" as="targetPoint" />
          </mxGeometry>
        </mxCell>
        <mxCell id="zXnYOzu0UvHGzboVhQbv-49" value="Lisan raamatu riiulisse paremale" style="rhombus;whiteSpace=wrap;html=1;fillColor=#fff2cc;strokeColor=#d6b656;" vertex="1" parent="1">
          <mxGeometry x="255" y="610" width="170" height="110" as="geometry" />
        </mxCell>
        <mxCell id="zXnYOzu0UvHGzboVhQbv-50" value="Lisan raamatu riiulisse vasakule" style="rhombus;whiteSpace=wrap;html=1;fillColor=#fff2cc;strokeColor=#d6b656;" vertex="1" parent="1">
          <mxGeometry x="60" y="610" width="160" height="110" as="geometry" />
        </mxCell>
        <mxCell id="zXnYOzu0UvHGzboVhQbv-51" value="" style="endArrow=classic;html=1;rounded=0;exitX=0.5;exitY=1;exitDx=0;exitDy=0;entryX=0.5;entryY=0;entryDx=0;entryDy=0;" edge="1" parent="1" source="zXnYOzu0UvHGzboVhQbv-37" target="zXnYOzu0UvHGzboVhQbv-50">
          <mxGeometry width="50" height="50" relative="1" as="geometry">
            <mxPoint x="390" y="580" as="sourcePoint" />
            <mxPoint x="440" y="530" as="targetPoint" />
          </mxGeometry>
        </mxCell>
        <mxCell id="zXnYOzu0UvHGzboVhQbv-52" value="" style="endArrow=classic;html=1;rounded=0;entryX=0.5;entryY=0;entryDx=0;entryDy=0;exitX=0.5;exitY=1;exitDx=0;exitDy=0;" edge="1" parent="1" source="zXnYOzu0UvHGzboVhQbv-37" target="zXnYOzu0UvHGzboVhQbv-49">
          <mxGeometry width="50" height="50" relative="1" as="geometry">
            <mxPoint x="390" y="530" as="sourcePoint" />
            <mxPoint x="440" y="530" as="targetPoint" />
          </mxGeometry>
        </mxCell>
        <mxCell id="zXnYOzu0UvHGzboVhQbv-55" value="" style="endArrow=classic;html=1;rounded=0;exitX=0.5;exitY=1;exitDx=0;exitDy=0;entryX=0;entryY=0.5;entryDx=0;entryDy=0;" edge="1" parent="1" source="zXnYOzu0UvHGzboVhQbv-39" target="zXnYOzu0UvHGzboVhQbv-15">
          <mxGeometry width="50" height="50" relative="1" as="geometry">
            <mxPoint x="390" y="740" as="sourcePoint" />
            <mxPoint x="440" y="690" as="targetPoint" />
          </mxGeometry>
        </mxCell>
        <mxCell id="zXnYOzu0UvHGzboVhQbv-56" value="" style="endArrow=classic;html=1;rounded=0;exitX=0.5;exitY=1;exitDx=0;exitDy=0;entryX=0;entryY=0.5;entryDx=0;entryDy=0;" edge="1" parent="1" source="zXnYOzu0UvHGzboVhQbv-50" target="zXnYOzu0UvHGzboVhQbv-23">
          <mxGeometry width="50" height="50" relative="1" as="geometry">
            <mxPoint x="390" y="820" as="sourcePoint" />
            <mxPoint x="440" y="770" as="targetPoint" />
          </mxGeometry>
        </mxCell>
        <mxCell id="zXnYOzu0UvHGzboVhQbv-57" value="" style="endArrow=classic;html=1;rounded=0;exitX=0.5;exitY=1;exitDx=0;exitDy=0;entryX=1;entryY=0.5;entryDx=0;entryDy=0;" edge="1" parent="1" source="zXnYOzu0UvHGzboVhQbv-49" target="zXnYOzu0UvHGzboVhQbv-23">
          <mxGeometry width="50" height="50" relative="1" as="geometry">
            <mxPoint x="390" y="820" as="sourcePoint" />
            <mxPoint x="440" y="770" as="targetPoint" />
          </mxGeometry>
        </mxCell>
        <mxCell id="zXnYOzu0UvHGzboVhQbv-58" value="" style="endArrow=classic;html=1;rounded=0;exitX=0.5;exitY=1;exitDx=0;exitDy=0;entryX=0;entryY=0.5;entryDx=0;entryDy=0;" edge="1" parent="1" source="zXnYOzu0UvHGzboVhQbv-23" target="zXnYOzu0UvHGzboVhQbv-37">
          <mxGeometry width="50" height="50" relative="1" as="geometry">
            <mxPoint x="390" y="820" as="sourcePoint" />
            <mxPoint x="440" y="770" as="targetPoint" />
            <Array as="points">
              <mxPoint x="245" y="820" />
              <mxPoint x="20" y="820" />
              <mxPoint x="20" y="515" />
            </Array>
          </mxGeometry>
        </mxCell>
        <mxCell id="zXnYOzu0UvHGzboVhQbv-61" value="" style="endArrow=classic;startArrow=classic;html=1;rounded=0;entryX=0;entryY=0.5;entryDx=0;entryDy=0;exitX=0;exitY=0.5;exitDx=0;exitDy=0;" edge="1" parent="1" source="zXnYOzu0UvHGzboVhQbv-22" target="zXnYOzu0UvHGzboVhQbv-20">
          <mxGeometry width="50" height="50" relative="1" as="geometry">
            <mxPoint x="390" y="820" as="sourcePoint" />
            <mxPoint x="440" y="770" as="targetPoint" />
            <Array as="points">
              <mxPoint x="530" y="670" />
              <mxPoint x="600" y="670" />
            </Array>
          </mxGeometry>
        </mxCell>
        <mxCell id="zXnYOzu0UvHGzboVhQbv-62" value="" style="endArrow=classic;html=1;rounded=0;exitX=1;exitY=0.5;exitDx=0;exitDy=0;" edge="1" parent="1" source="zXnYOzu0UvHGzboVhQbv-23">
          <mxGeometry width="50" height="50" relative="1" as="geometry">
            <mxPoint x="390" y="820" as="sourcePoint" />
            <mxPoint x="530" y="670" as="targetPoint" />
          </mxGeometry>
        </mxCell>
        <mxCell id="zXnYOzu0UvHGzboVhQbv-63" value="" style="endArrow=classic;html=1;rounded=0;exitX=1;exitY=0.5;exitDx=0;exitDy=0;" edge="1" parent="1" source="zXnYOzu0UvHGzboVhQbv-23">
          <mxGeometry width="50" height="50" relative="1" as="geometry">
            <mxPoint x="390" y="820" as="sourcePoint" />
            <mxPoint x="460" y="790" as="targetPoint" />
          </mxGeometry>
        </mxCell>
        <mxCell id="zXnYOzu0UvHGzboVhQbv-64" value="" style="endArrow=classic;startArrow=classic;html=1;rounded=0;entryX=0;entryY=0.5;entryDx=0;entryDy=0;exitX=0;exitY=0.5;exitDx=0;exitDy=0;" edge="1" parent="1" target="zXnYOzu0UvHGzboVhQbv-26">
          <mxGeometry width="50" height="50" relative="1" as="geometry">
            <mxPoint x="460" y="840" as="sourcePoint" />
            <mxPoint x="530" y="810" as="targetPoint" />
            <Array as="points">
              <mxPoint x="460" y="790" />
              <mxPoint x="530" y="790" />
            </Array>
          </mxGeometry>
        </mxCell>
        <mxCell id="zXnYOzu0UvHGzboVhQbv-68" value="" style="endArrow=none;dashed=1;html=1;dashPattern=1 3;strokeWidth=2;rounded=0;" edge="1" parent="1">
          <mxGeometry width="50" height="50" relative="1" as="geometry">
            <mxPoint x="290" y="900" as="sourcePoint" />
            <mxPoint x="700" y="900" as="targetPoint" />
          </mxGeometry>
        </mxCell>
        <mxCell id="zXnYOzu0UvHGzboVhQbv-69" value="Riiul" style="text;strokeColor=none;align=center;fillColor=none;html=1;verticalAlign=middle;whiteSpace=wrap;rounded=0;" vertex="1" parent="1">
          <mxGeometry x="290" y="870" width="60" height="30" as="geometry" />
        </mxCell>
        <mxCell id="zXnYOzu0UvHGzboVhQbv-71" value="15" style="rounded=0;whiteSpace=wrap;html=1;direction=south;fillColor=#d5e8d4;strokeColor=#82b366;" vertex="1" parent="1">
          <mxGeometry x="60" y="275" width="60" height="50" as="geometry" />
        </mxCell>
        <mxCell id="zXnYOzu0UvHGzboVhQbv-72" value="25" style="rounded=0;whiteSpace=wrap;html=1;direction=south;fillColor=#d5e8d4;strokeColor=#82b366;" vertex="1" parent="1">
          <mxGeometry x="60" y="330" width="60" height="80" as="geometry" />
        </mxCell>
        <mxCell id="zXnYOzu0UvHGzboVhQbv-73" value="20" style="rounded=0;whiteSpace=wrap;html=1;direction=south;fillColor=#d5e8d4;strokeColor=#82b366;" vertex="1" parent="1">
          <mxGeometry x="60" y="420" width="60" height="70" as="geometry" />
        </mxCell>
        <mxCell id="zXnYOzu0UvHGzboVhQbv-74" value="Vahemälu" style="text;strokeColor=none;align=center;fillColor=none;html=1;verticalAlign=middle;whiteSpace=wrap;rounded=0;rotation=270;" vertex="1" parent="1">
          <mxGeometry y="300" width="60" height="30" as="geometry" />
        </mxCell>
      </root>
    </mxGraphModel>
  </diagram>
</mxfile>
